HIERARCHY
ROOT Hips
{
  OFFSET 13.6774 106.653 -34.4427
  CHANNELS 6 Xposition Yposition Zposition Zrotation Xrotation Yrotation
  JOINT ToSpine
  {
    OFFSET -2.69724 7.43032 -0.144315
    CHANNELS 3 Zrotation Xrotation Yrotation
    JOINT Spine
    {
      OFFSET -0.0310711 10.7595 1.96963
      CHANNELS 3 Zrotation Xrotation Yrotation
      JOINT Spine1
      {
        OFFSET 19.9056 3.91189 0.764692
        CHANNELS 3 Zrotation Xrotation Yrotation
        JOINT Neck
        {
          OFFSET 25.9749 7.03908 -0.130764
          CHANNELS 3 Zrotation Xrotation Yrotation
          JOINT Head
          {
            OFFSET 9.52751 0.295786 -0.907742
            CHANNELS 3 Zrotation Xrotation Yrotation
            End Site
            {
              OFFSET 16.4037 0.713936 2.7358
            }
          }
        }
        JOINT LeftShoulder
        {
          OFFSET 17.7449 4.33886 11.7777
          CHANNELS 3 Zrotation Xrotation Yrotation
          JOINT LeftArm
          {
            OFFSET 0.911315 1.27913 9.80584
            CHANNELS 3 Zrotation Xrotation Yrotation
            JOINT LeftForeArm
            {
              OFFSET 28.6126 1.18197 -3.53199
              CHANNELS 3 Zrotation Xrotation Yrotation
              JOINT LeftHand
              {
                OFFSET 27.5088 0.0218783 0.327423
                CHANNELS 3 Zrotation Xrotation Yrotation
                End Site
                {
                  OFFSET 18.6038 -0.000155887 0.382096
                }
              }
            }
          }
        }
        JOINT RightShoulder
        {
          OFFSET 17.1009 2.89543 -12.2328
          CHANNELS 3 Zrotation Xrotation Yrotation
          JOINT RightArm
          {
            OFFSET 1.4228 0.178766 -10.211
            CHANNELS 3 Zrotation Xrotation Yrotation
            JOINT RightForeArm
            {
              OFFSET 28.733 1.87905 2.64907
              CHANNELS 3 Zrotation Xrotation Yrotation
              JOINT RightHand
              {
                OFFSET 27.4588 0.290562 -0.101845
                CHANNELS 3 Zrotation Xrotation Yrotation
                End Site
                {
                  OFFSET 17.8396 -0.255518 -0.000602873
                }
              }
            }
          }
        }
      }
    }
  }
  JOINT LeftUpLeg
  {
    OFFSET -5.61296 -2.22332 -10.2353
    CHANNELS 3 Zrotation Xrotation Yrotation
    JOINT LeftLeg
    {
      OFFSET 2.56703 -44.7417 -7.93097
      CHANNELS 3 Zrotation Xrotation Yrotation
      JOINT LeftFoot
      {
        OFFSET 3.16933 -46.5642 -3.96578
        CHANNELS 3 Zrotation Xrotation Yrotation
        JOINT LeftToeBase
        {
          OFFSET 0.346054 -6.02161 12.8035
          CHANNELS 3 Zrotation Xrotation Yrotation
          End Site
          {
            OFFSET 0.134235 -1.35082 5.13018
          }
        }
      }
    }
  }
  JOINT RightUpLeg
  {
    OFFSET -5.7928 -1.72406 10.6446
    CHANNELS 3 Zrotation Xrotation Yrotation
    JOINT RightLeg
    {
      OFFSET -2.57161 -44.7178 -7.85259
      CHANNELS 3 Zrotation Xrotation Yrotation
      JOINT RightFoot
      {
        OFFSET -3.10148 -46.5936 -4.03391
        CHANNELS 3 Zrotation Xrotation Yrotation
        JOINT RightToeBase
        {
          OFFSET -0.0828122 -6.13587 12.8035
          CHANNELS 3 Zrotation Xrotation Yrotation
          End Site
          {
            OFFSET -0.131328 -1.35082 5.13018
          }
        }
      }
    }
  }
}
MOTION
Frames: 14
Frame Time: 0.03333333333333333
0.0000 93.1000 0.0000 5.8210 -74.0095 -86.2354 -70.9165 -0.1118 87.9709 138.1032 61.9368 -47.4230 -4.9559 19.5518 -0.0437 -146.2647 15.1472 170.6040 -134.3144 48.5942 159.1424 0.4389 -10.1761 3.3777 -108.8402 14.0774 -107.0339 -8.2634 34.2631 8.8923 17.7446 -0.6240 1.4092 -0.4034 -2.5441 -8.3947 -82.2627 -23.4784 95.1143 17.7857 -4.1965 80.8686 1.3670 -0.0871 8.2631 -3.2821 29.3873 65.4481 -9.4326 69.1381 -2.1275 3.0075 9.7214 0.0296 -4.2178 0.0960 14.4185 -50.3137 -41.5642 96.4141 2.1505 37.1120 10.1702 -5.0942 -2.1983 -0.7764 2.0223 15.3568 -14.2083 
0.0000 93.1000 0.0000 -20.5391 -72.5977 -116.2127 -70.9149 -0.0933 87.9716 137.9790 62.6973 -49.5125 -5.6026 21.7549 -3.7733 -141.9356 13.3364 173.7267 -136.1600 47.9871 166.2044 0.3095 -8.9231 6.1774 -106.4669 4.6694 -97.2414 -7.4839 22.6113 8.1988 17.2754 -0.3300 2.0150 -0.5330 -1.3108 -9.5677 -83.2414 -20.1169 88.2618 14.0805 -5.9289 72.6939 0.2614 0.1693 7.2466 -15.9969 37.5466 69.4097 -5.1957 56.4527 -9.8289 0.1340 10.1566 0.0854 -4.0068 2.8193 15.5505 -35.6717 -40.0732 104.3259 1.1621 49.1041 5.6699 -5.1139 0.7149 -0.3996 2.6109 13.2770 -15.7283 
0.0000 93.1000 0.0000 -33.1343 -70.8945 -129.1696 -70.9010 0.0821 87.9526 135.9224 62.6703 -51.4723 -4.3236 23.0919 -6.2248 -142.8459 12.5199 174.3840 -138.9046 48.2014 170.1762 -0.5299 -7.7548 6.8726 -101.6653 3.7097 -84.4887 -7.0814 11.4945 5.3361 16.4522 0.7085 1.4822 -0.5897 -0.9333 -7.9845 -87.5522 -16.3484 81.3499 12.9234 -7.0402 62.4217 0.1099 1.1245 4.9441 -30.8684 39.3343 75.2382 -4.1433 43.6379 -12.4492 -2.7688 10.2385 -0.3073 -3.8128 2.0354 16.3798 -23.1239 -37.4324 109.0403 9.2532 71.2636 0.6190 -5.8862 -0.6266 0.6222 5.7591 3.5003 -19.0726 
0.0000 93.1000 0.0000 -27.4485 -71.3263 -124.2917 -70.8907 0.0197 87.9177 133.9926 61.8252 -51.5998 -2.4412 22.0272 -6.6165 -143.0750 12.3161 175.6697 -139.7286 48.2971 172.5161 -0.2483 -5.4585 6.0229 -96.8808 4.3231 -75.1843 -7.3349 9.2536 0.6070 15.5335 0.7635 1.3261 -0.6840 -2.0592 -5.5412 -91.5024 -14.1792 74.0134 13.0336 -9.6784 50.7813 1.9537 1.0202 3.9571 -36.3520 37.2970 77.8251 -3.5058 37.3451 -12.4305 -4.3822 8.3780 0.1839 -4.9039 1.5284 19.5531 -15.1313 -37.2639 107.8556 125.3805 83.7359 -117.4022 -8.4349 -3.5208 1.4527 7.6974 -5.4130 -18.2782 
0.0000 93.1000 0.0000 -20.6980 -70.8929 -115.7179 -70.8585 -0.0802 87.8843 134.9634 60.7988 -50.3855 -2.7289 20.5589 -5.7615 -145.2054 12.5320 176.9569 -139.1875 47.9925 173.5086 0.3766 -2.8756 3.6717 -93.1094 12.5186 -69.2187 -6.4959 2.1975 -8.7014 13.0820 0.4553 1.4060 -0.7659 -3.7618 -3.1427 -93.0459 -15.2021 67.1093 9.5605 -8.6667 42.0819 3.0862 0.5883 3.4486 -34.8001 35.9926 79.0907 -3.0589 37.8808 -13.4704 -4.2041 7.8736 0.4771 -5.5414 -1.3399 21.9857 -11.3331 -35.6690 100.0410 165.1100 68.3598 -152.2453 -9.2724 -6.7852 1.5674 7.6277 -7.6211 -16.1084 
0.0000 93.1000 0.0000 -20.0468 -70.2737 -114.0135 -70.7994 -0.2062 87.8579 135.7922 58.7568 -50.7323 -2.9093 18.9843 -4.4470 -149.3179 11.7249 175.3876 -135.7089 46.2258 168.8370 1.0889 -0.9834 -1.8381 -85.8044 23.1819 -68.2892 -5.9603 -14.4051 -19.4767 10.3770 -0.0471 1.3605 -0.6735 -4.7333 -0.1440 -91.4139 -20.4236 62.0089 4.6275 -4.5828 37.6015 2.7948 0.0775 3.2890 -32.7849 33.8992 82.7185 -3.8418 44.9215 -14.2331 -2.0133 5.7179 0.1817 -6.4684 -11.6526 26.0275 -6.0970 -31.0900 89.7344 168.4439 55.4754 -150.5131 -9.6627 -7.8913 1.4985 6.1500 -10.9908 -9.9528 
0.0000 93.1000 0.0000 -19.8899 -70.2050 -116.2062 -70.7816 -0.2016 87.8624 135.8976 56.9060 -54.3976 -1.2085 17.7817 -2.6999 -155.0370 10.8716 173.4794 -134.6199 44.8811 165.8012 1.3369 1.0878 -9.1925 -87.3889 26.9669 -70.3885 -5.2696 -19.0914 -24.1040 9.6055 0.0318 1.0129 -0.3426 -5.3511 5.9171 -89.3863 -26.2619 62.1072 2.9221 -1.9387 35.8765 0.9982 0.2621 3.2255 -29.1603 29.9145 85.7640 -5.6360 53.9984 -8.4020 3.6441 2.3299 -1.3742 -6.6716 -21.8515 23.7771 -0.0946 -25.4982 78.8657 168.4290 53.9890 -148.0694 -9.7866 -6.6895 1.3311 7.1090 -15.1991 -7.3202 
0.0000 93.1000 0.0000 -8.9122 -69.2194 -106.5086 -70.7752 -0.2635 87.9129 133.8923 56.5652 -57.8051 0.4068 16.8964 0.9922 -161.0570 11.9648 173.9480 -134.2844 46.1582 166.6770 1.6576 0.7713 -19.1654 -92.2648 25.5953 -81.4718 -4.9532 -14.1859 -21.2872 8.7838 -0.3748 0.5610 -0.0784 -5.8697 13.4960 -90.2565 -31.3974 67.2711 2.4664 -0.7481 30.6694 -1.0406 -0.1072 2.8731 -17.9179 24.0047 83.3698 -10.6034 70.3320 -4.4382 4.5801 2.0581 -1.1213 -7.6832 -27.8691 21.5039 3.0386 -20.9073 69.1487 166.1647 62.1287 -145.5986 -10.5135 -5.9896 0.8206 7.9395 -18.2202 -8.3271 
0.0000 93.1000 0.0000 8.9466 -68.3500 -91.4486 -70.8047 -0.3022 87.9796 134.1345 55.7335 -56.4662 2.9964 16.3304 2.0838 -162.5805 14.9217 174.0327 -136.3870 50.4523 169.7714 1.5744 -1.9626 -24.4579 -97.8199 25.5038 -96.7180 -5.1509 -1.8870 -11.0778 8.5278 -0.7019 0.3891 -0.1220 -5.1575 21.7214 -90.2014 -34.9965 74.9993 3.5882 -7.4780 21.3798 -4.1347 -0.4553 2.2893 -10.9868 18.4129 85.4836 -14.6149 74.3276 -3.4695 4.6025 2.9496 -0.6991 -8.1799 -31.7834 17.0254 3.8758 -18.4494 64.4837 159.4342 74.8904 -142.3388 -9.0287 -4.3933 0.0627 6.2379 -9.9956 -9.0828 
0.0000 93.1000 0.0000 25.3230 -69.0576 -79.0233 -70.8624 -0.1843 87.9557 137.8074 54.5462 -57.3329 6.2130 16.6831 -0.6274 -164.0438 19.1379 177.6869 -135.4151 55.1363 167.9279 0.6632 -4.3385 -28.2624 -97.8965 27.8992 -112.5382 -5.4772 9.6022 -6.7600 8.2894 -0.3315 -1.0949 0.0832 -3.0867 25.8420 -95.6551 -33.8005 80.7642 2.8006 -22.0073 13.4539 -6.0950 0.1356 2.2797 -11.5824 11.4361 93.5526 -20.4912 78.0881 0.8651 4.5560 4.1124 -1.1168 -8.3701 -35.8664 14.1998 0.6514 -17.1998 70.9640 145.6577 81.9988 -130.4818 -7.0633 -3.1531 -0.1549 6.4720 3.6038 -18.3587 
0.0000 93.1000 0.0000 48.1746 -69.5792 -59.9252 -70.9067 -0.1441 87.9661 142.0380 53.4447 -58.5146 7.1661 16.4249 -0.8040 -164.0178 22.7324 179.1576 -135.8393 58.7427 168.6271 0.2434 -6.4129 -29.0530 -84.4512 28.0886 -128.5305 -3.0151 10.0310 -12.0720 9.0463 -0.3009 -2.1593 -0.0024 -0.4637 26.0234 -96.3344 -35.4809 87.6350 1.7922 -22.9538 11.2779 -4.0679 0.1175 1.3840 -13.9322 4.3640 98.7677 -33.2881 81.4741 14.7028 5.8499 1.9316 -1.4364 -8.3878 -32.6641 12.4641 -1.7307 -15.2819 81.6996 150.7912 81.3027 -142.0971 -6.8671 -2.7734 0.1445 10.9192 -21.4001 -22.7507 
0.0000 93.1000 0.0000 55.8531 -68.8367 -52.3032 -70.9923 -0.0321 88.0151 143.2585 54.3222 -56.8631 8.1921 17.4546 -1.4468 -162.1891 25.7375 -180.6975 -135.5459 61.6158 168.6967 -0.4581 -7.4652 -29.2200 -66.4667 22.0189 -141.5058 1.7315 1.3887 -22.7188 10.7460 0.1626 -4.2297 -0.1507 0.4626 24.6487 -95.4059 -35.7833 94.3901 0.6413 -13.4960 12.7653 -1.6246 1.0237 1.8916 -13.8367 -1.5012 100.7981 -56.2819 84.5951 38.7839 6.9699 4.3446 -2.0635 -8.9877 -39.0179 11.8602 -0.5609 -13.1337 90.8046 159.3073 76.9617 -155.9798 -7.1733 -0.6936 0.6688 12.5743 -30.4840 -17.4192 
0.0000 93.1000 0.0000 52.9844 -69.4903 -51.0770 -71.0547 -0.2127 88.0398 147.2675 55.2084 -54.7229 8.8950 18.4903 -0.9410 -161.2812 26.2362 -179.5391 -136.2973 62.8529 169.1643 0.7233 -7.5990 -30.9855 -65.8180 24.8668 -141.8209 5.8202 5.9024 -31.7607 12.5435 -0.9121 -2.8554 -0.4293 0.8526 26.2177 -93.5867 -32.9374 101.9632 -0.8316 -1.1890 16.6663 1.4475 -0.1321 3.5399 -12.8188 -2.1920 98.2932 -78.2988 85.8577 63.5480 8.6273 4.9383 -1.4447 -9.7766 -42.0119 9.7183 -1.9942 -10.4701 91.7941 160.7574 78.3056 -157.3486 -8.3324 0.2656 0.3653 12.8896 -30.4316 -18.6253 
0.0000 93.1000 0.0000 53.2758 -71.1096 -50.1032 -70.9786 -0.2712 88.0129 148.7668 55.2334 -56.4952 9.0102 19.2767 0.1624 -160.3234 25.9226 178.2235 -134.2205 61.6335 167.0016 1.5700 -6.2321 -29.9189 -65.9892 30.4768 -140.4497 9.4723 9.7907 -36.2481 14.0942 -1.2742 -1.1546 -0.4890 0.8130 25.4569 -89.9545 -34.1118 108.5977 -1.9057 8.0410 21.6063 1.8315 -0.6710 4.3201 -15.6235 -2.8482 98.0727 -54.7365 83.5293 41.7475 8.1615 5.4198 -1.1154 -10.2788 -45.2154 7.1009 -6.3309 -10.5297 92.4107 153.2866 81.5415 -152.6495 -7.3816 -1.7507 0.3916 12.2707 -31.7443 -17.5556 
